<?xml version="1.0" encoding="UTF-8"?>
<svg xmlns="http://www.w3.org/2000/svg" xmlns:xlink="http://www.w3.org/1999/xlink" width="1280" height="720" viewBox="0 0 1280 720">
<defs>
<g>
<g id="glyph-0-0">
<path d="M 0.234375 0 L 0.234375 -0.4375 L 0.578125 -0.4375 C 0.703125 -0.4375 0.800781 -0.46875 0.875 -0.53125 C 0.957031 -0.59375 1 -0.742188 1 -0.984375 L 1 -5 C 1 -5.21875 0.957031 -5.351562 0.875 -5.40625 C 0.800781 -5.46875 0.703125 -5.5 0.578125 -5.5 L 0.234375 -5.5 L 0.234375 -5.953125 L 2.984375 -5.953125 C 3.898438 -5.953125 4.617188 -5.707031 5.140625 -5.21875 C 5.660156 -4.738281 5.921875 -4.023438 5.921875 -3.078125 C 5.921875 -2.472656 5.8125 -1.9375 5.59375 -1.46875 C 5.375 -1.007812 5.046875 -0.648438 4.609375 -0.390625 C 4.171875 -0.128906 3.628906 0 2.984375 0 Z M 2.796875 -0.515625 C 3.359375 -0.515625 3.785156 -0.742188 4.078125 -1.203125 C 4.367188 -1.660156 4.515625 -2.285156 4.515625 -3.078125 C 4.515625 -3.867188 4.367188 -4.457031 4.078125 -4.84375 C 3.785156 -5.238281 3.359375 -5.4375 2.796875 -5.4375 L 2.328125 -5.4375 L 2.328125 -0.515625 Z "/>
</g>
<g id="glyph-0-1">
<path d="M 0.171875 0 L 0.171875 -0.4375 L 0.1875 -0.4375 C 0.375 -0.4375 0.523438 -0.472656 0.640625 -0.546875 C 0.765625 -0.617188 0.828125 -0.785156 0.828125 -1.046875 L 0.828125 -3.453125 C 0.828125 -3.703125 0.773438 -3.859375 0.671875 -3.921875 C 0.566406 -3.984375 0.421875 -4.015625 0.234375 -4.015625 L 0.203125 -4.015625 L 0.203125 -4.46875 L 1.890625 -4.46875 L 2.0625 -3.8125 L 2.09375 -3.8125 C 2.207031 -4.0625 2.347656 -4.25 2.515625 -4.375 C 2.679688 -4.5 2.929688 -4.5625 3.265625 -4.5625 C 3.910156 -4.5625 4.234375 -4.335938 4.234375 -3.890625 C 4.234375 -3.628906 4.140625 -3.425781 3.953125 -3.28125 C 3.765625 -3.144531 3.503906 -3.078125 3.171875 -3.078125 C 3.171875 -3.304688 3.140625 -3.476562 3.078125 -3.59375 C 3.023438 -3.707031 2.921875 -3.765625 2.765625 -3.765625 C 2.617188 -3.765625 2.5 -3.710938 2.40625 -3.609375 C 2.320312 -3.515625 2.257812 -3.394531 2.21875 -3.25 C 2.175781 -3.101562 2.144531 -2.953125 2.125 -2.796875 C 2.101562 -2.648438 2.09375 -2.53125 2.09375 -2.4375 L 2.09375 -1 C 2.09375 -0.757812 2.148438 -0.601562 2.265625 -0.53125 C 2.378906 -0.46875 2.519531 -0.4375 2.6875 -0.4375 L 2.953125 -0.4375 L 2.953125 0 Z "/>
</g>
<g id="glyph-0-2">
<path d="M 2.546875 0.078125 C 1.878906 0.078125 1.351562 -0.113281 0.96875 -0.5 C 0.582031 -0.882812 0.390625 -1.46875 0.390625 -2.25 C 0.390625 -3.03125 0.570312 -3.613281 0.9375 -4 C 1.300781 -4.382812 1.84375 -4.578125 2.5625 -4.578125 C 3.226562 -4.578125 3.753906 -4.382812 4.140625 -4 C 4.523438 -3.613281 4.71875 -3.03125 4.71875 -2.25 C 4.71875 -1.46875 4.53125 -0.882812 4.15625 -0.5 C 3.789062 -0.113281 3.253906 0.078125 2.546875 0.078125 Z M 2.5625 -0.4375 C 2.882812 -0.4375 3.109375 -0.585938 3.234375 -0.890625 C 3.359375 -1.203125 3.421875 -1.65625 3.421875 -2.25 C 3.421875 -2.84375 3.351562 -3.289062 3.21875 -3.59375 C 3.09375 -3.894531 2.867188 -4.046875 2.546875 -4.046875 C 2.222656 -4.046875 2 -3.894531 1.875 -3.59375 C 1.75 -3.289062 1.6875 -2.84375 1.6875 -2.25 C 1.6875 -1.65625 1.75 -1.203125 1.875 -0.890625 C 2.007812 -0.585938 2.238281 -0.4375 2.5625 -0.4375 Z "/>
</g>
<g id="glyph-0-3">
<path d="M 0.171875 0 L 0.171875 -0.4375 L 0.1875 -0.4375 C 0.375 -0.4375 0.523438 -0.46875 0.640625 -0.53125 C 0.765625 -0.601562 0.828125 -0.765625 0.828125 -1.015625 L 0.828125 -3.484375 C 0.828125 -3.710938 0.773438 -3.859375 0.671875 -3.921875 C 0.566406 -3.984375 0.421875 -4.015625 0.234375 -4.015625 L 0.203125 -4.015625 L 0.203125 -4.46875 L 1.953125 -4.46875 L 2.0625 -3.875 L 2.109375 -3.875 C 2.222656 -4.082031 2.34375 -4.234375 2.46875 -4.328125 C 2.601562 -4.429688 2.742188 -4.5 2.890625 -4.53125 C 3.046875 -4.5625 3.207031 -4.578125 3.375 -4.578125 C 3.800781 -4.578125 4.132812 -4.445312 4.375 -4.1875 C 4.625 -3.9375 4.75 -3.53125 4.75 -2.96875 L 4.75 -1.03125 C 4.75 -0.78125 4.796875 -0.617188 4.890625 -0.546875 C 4.984375 -0.472656 5.125 -0.4375 5.3125 -0.4375 L 5.34375 -0.4375 L 5.34375 0 L 3.484375 0 L 3.484375 -2.734375 C 3.484375 -3.097656 3.429688 -3.375 3.328125 -3.5625 C 3.234375 -3.757812 3.066406 -3.859375 2.828125 -3.859375 C 2.640625 -3.859375 2.492188 -3.796875 2.390625 -3.671875 C 2.285156 -3.554688 2.207031 -3.398438 2.15625 -3.203125 C 2.113281 -3.015625 2.09375 -2.804688 2.09375 -2.578125 L 2.09375 -0.984375 C 2.09375 -0.753906 2.144531 -0.601562 2.25 -0.53125 C 2.363281 -0.46875 2.515625 -0.4375 2.703125 -0.4375 L 2.71875 -0.4375 L 2.71875 0 Z "/>
</g>
<g id="glyph-0-4">
<path d="M 2.546875 0.078125 C 1.835938 0.078125 1.300781 -0.117188 0.9375 -0.515625 C 0.570312 -0.921875 0.390625 -1.484375 0.390625 -2.203125 C 0.390625 -2.984375 0.566406 -3.570312 0.921875 -3.96875 C 1.285156 -4.375 1.796875 -4.578125 2.453125 -4.578125 C 3.054688 -4.578125 3.53125 -4.40625 3.875 -4.0625 C 4.226562 -3.726562 4.40625 -3.226562 4.40625 -2.5625 L 4.40625 -2.140625 L 1.671875 -2.140625 C 1.691406 -1.585938 1.796875 -1.179688 1.984375 -0.921875 C 2.179688 -0.671875 2.453125 -0.546875 2.796875 -0.546875 C 3.078125 -0.546875 3.316406 -0.609375 3.515625 -0.734375 C 3.722656 -0.867188 3.875 -1.03125 3.96875 -1.21875 C 4.113281 -1.132812 4.1875 -1 4.1875 -0.8125 C 4.1875 -0.570312 4.050781 -0.363281 3.78125 -0.1875 C 3.519531 -0.0078125 3.109375 0.078125 2.546875 0.078125 Z M 3.125 -2.671875 C 3.125 -3.097656 3.070312 -3.429688 2.96875 -3.671875 C 2.875 -3.910156 2.707031 -4.03125 2.46875 -4.03125 C 2.238281 -4.03125 2.050781 -3.914062 1.90625 -3.6875 C 1.769531 -3.457031 1.695312 -3.117188 1.6875 -2.671875 Z "/>
</g>
<g id="glyph-0-5">
</g>
<g id="glyph-0-6">
<path d="M 0.234375 0 L 0.234375 -0.4375 L 0.578125 -0.4375 C 0.691406 -0.4375 0.789062 -0.460938 0.875 -0.515625 C 0.957031 -0.578125 1 -0.71875 1 -0.9375 L 1 -5 C 1 -5.21875 0.957031 -5.351562 0.875 -5.40625 C 0.789062 -5.46875 0.691406 -5.5 0.578125 -5.5 L 0.234375 -5.5 L 0.234375 -5.953125 L 2.921875 -5.953125 C 3.703125 -5.953125 4.273438 -5.816406 4.640625 -5.546875 C 5.015625 -5.285156 5.203125 -4.90625 5.203125 -4.40625 C 5.203125 -4.113281 5.144531 -3.863281 5.03125 -3.65625 C 4.914062 -3.445312 4.769531 -3.273438 4.59375 -3.140625 C 4.425781 -3.015625 4.25 -2.910156 4.0625 -2.828125 L 5.0625 -1.125 C 5.195312 -0.882812 5.328125 -0.707031 5.453125 -0.59375 C 5.585938 -0.488281 5.734375 -0.4375 5.890625 -0.4375 L 5.921875 -0.4375 L 5.921875 0 L 5.640625 0 C 5.304688 0 5.03125 -0.015625 4.8125 -0.046875 C 4.59375 -0.0859375 4.410156 -0.160156 4.265625 -0.265625 C 4.117188 -0.378906 3.984375 -0.539062 3.859375 -0.75 L 2.875 -2.578125 L 2.328125 -2.578125 L 2.328125 -0.9375 C 2.328125 -0.71875 2.367188 -0.578125 2.453125 -0.515625 C 2.535156 -0.460938 2.632812 -0.4375 2.75 -0.4375 L 3.109375 -0.4375 L 3.109375 0 Z M 2.796875 -3.0625 C 3.171875 -3.0625 3.429688 -3.164062 3.578125 -3.375 C 3.722656 -3.582031 3.796875 -3.882812 3.796875 -4.28125 C 3.796875 -4.707031 3.71875 -5.007812 3.5625 -5.1875 C 3.40625 -5.363281 3.140625 -5.453125 2.765625 -5.453125 L 2.328125 -5.453125 L 2.328125 -3.0625 Z "/>
</g>
<g id="glyph-0-7">
<path d="M 1.6875 0.078125 C 1.3125 0.078125 1 -0.03125 0.75 -0.25 C 0.5 -0.46875 0.375 -0.8125 0.375 -1.28125 C 0.375 -1.726562 0.53125 -2.054688 0.84375 -2.265625 C 1.15625 -2.484375 1.617188 -2.601562 2.234375 -2.625 L 2.921875 -2.65625 L 2.921875 -3.109375 C 2.921875 -3.390625 2.890625 -3.617188 2.828125 -3.796875 C 2.773438 -3.972656 2.632812 -4.0625 2.40625 -4.0625 C 2.195312 -4.0625 2.050781 -3.976562 1.96875 -3.8125 C 1.882812 -3.644531 1.84375 -3.429688 1.84375 -3.171875 C 1.476562 -3.171875 1.195312 -3.210938 1 -3.296875 C 0.8125 -3.378906 0.71875 -3.519531 0.71875 -3.71875 C 0.71875 -3.925781 0.796875 -4.085938 0.953125 -4.203125 C 1.109375 -4.328125 1.316406 -4.421875 1.578125 -4.484375 C 1.835938 -4.546875 2.125 -4.578125 2.4375 -4.578125 C 3.019531 -4.578125 3.457031 -4.46875 3.75 -4.25 C 4.039062 -4.039062 4.1875 -3.675781 4.1875 -3.15625 L 4.1875 -1.03125 C 4.1875 -0.800781 4.222656 -0.644531 4.296875 -0.5625 C 4.367188 -0.476562 4.5 -0.4375 4.6875 -0.4375 L 4.71875 -0.4375 L 4.71875 0 L 3.171875 0 L 3 -0.578125 L 2.921875 -0.578125 C 2.796875 -0.421875 2.679688 -0.296875 2.578125 -0.203125 C 2.472656 -0.109375 2.347656 -0.0390625 2.203125 0 C 2.066406 0.0507812 1.894531 0.078125 1.6875 0.078125 Z M 2.140625 -0.53125 C 2.378906 -0.53125 2.566406 -0.625 2.703125 -0.8125 C 2.847656 -1.007812 2.921875 -1.269531 2.921875 -1.59375 L 2.921875 -2.21875 L 2.546875 -2.1875 C 2.210938 -2.175781 1.984375 -2.085938 1.859375 -1.921875 C 1.734375 -1.765625 1.671875 -1.535156 1.671875 -1.234375 C 1.671875 -0.765625 1.828125 -0.53125 2.140625 -0.53125 Z "/>
</g>
<g id="glyph-0-8">
<path d="M 2.453125 0.078125 C 2.046875 0.078125 1.6875 0.00390625 1.375 -0.140625 C 1.070312 -0.285156 0.832031 -0.523438 0.65625 -0.859375 C 0.476562 -1.191406 0.390625 -1.644531 0.390625 -2.21875 C 0.390625 -2.8125 0.476562 -3.28125 0.65625 -3.625 C 0.84375 -3.96875 1.085938 -4.210938 1.390625 -4.359375 C 1.703125 -4.503906 2.050781 -4.578125 2.4375 -4.578125 C 2.96875 -4.578125 3.375 -4.488281 3.65625 -4.3125 C 3.9375 -4.144531 4.078125 -3.941406 4.078125 -3.703125 C 4.078125 -3.578125 4.046875 -3.460938 3.984375 -3.359375 C 3.929688 -3.253906 3.828125 -3.164062 3.671875 -3.09375 C 3.515625 -3.019531 3.289062 -2.984375 3 -2.984375 C 3 -3.179688 2.984375 -3.359375 2.953125 -3.515625 C 2.921875 -3.679688 2.863281 -3.8125 2.78125 -3.90625 C 2.707031 -4.007812 2.601562 -4.0625 2.46875 -4.0625 C 2.300781 -4.0625 2.15625 -4.003906 2.03125 -3.890625 C 1.914062 -3.785156 1.828125 -3.597656 1.765625 -3.328125 C 1.703125 -3.066406 1.671875 -2.695312 1.671875 -2.21875 C 1.671875 -1.65625 1.75 -1.234375 1.90625 -0.953125 C 2.0625 -0.679688 2.316406 -0.546875 2.671875 -0.546875 C 2.953125 -0.546875 3.195312 -0.609375 3.40625 -0.734375 C 3.625 -0.867188 3.78125 -1.03125 3.875 -1.21875 C 3.9375 -1.175781 3.984375 -1.117188 4.015625 -1.046875 C 4.054688 -0.984375 4.078125 -0.910156 4.078125 -0.828125 C 4.078125 -0.691406 4.019531 -0.550781 3.90625 -0.40625 C 3.789062 -0.269531 3.613281 -0.15625 3.375 -0.0625 C 3.132812 0.03125 2.828125 0.078125 2.453125 0.078125 Z "/>
</g>
<g id="glyph-0-9">
<path d="M 1.421875 -5.21875 C 1.222656 -5.21875 1.054688 -5.265625 0.921875 -5.359375 C 0.785156 -5.453125 0.71875 -5.601562 0.71875 -5.8125 C 0.71875 -6.019531 0.785156 -6.171875 0.921875 -6.265625 C 1.054688 -6.359375 1.222656 -6.40625 1.421875 -6.40625 C 1.617188 -6.40625 1.785156 -6.359375 1.921875 -6.265625 C 2.066406 -6.171875 2.140625 -6.019531 2.140625 -5.8125 C 2.140625 -5.601562 2.066406 -5.453125 1.921875 -5.359375 C 1.785156 -5.265625 1.617188 -5.21875 1.421875 -5.21875 Z M 0.140625 0 L 0.140625 -0.4375 L 0.234375 -0.4375 C 0.316406 -0.4375 0.40625 -0.445312 0.5 -0.46875 C 0.59375 -0.5 0.671875 -0.550781 0.734375 -0.625 C 0.796875 -0.707031 0.828125 -0.828125 0.828125 -0.984375 L 0.828125 -3.515625 C 0.828125 -3.660156 0.796875 -3.769531 0.734375 -3.84375 C 0.671875 -3.914062 0.59375 -3.960938 0.5 -3.984375 C 0.40625 -4.003906 0.316406 -4.015625 0.234375 -4.015625 L 0.140625 -4.015625 L 0.140625 -4.46875 L 2.09375 -4.46875 L 2.09375 -0.984375 C 2.09375 -0.828125 2.125 -0.707031 2.1875 -0.625 C 2.257812 -0.550781 2.34375 -0.5 2.4375 -0.46875 C 2.53125 -0.445312 2.613281 -0.4375 2.6875 -0.4375 L 2.796875 -0.4375 L 2.796875 0 Z "/>
</g>
<g id="glyph-0-10">
<path d="M 1.96875 2 C 0.664062 2 0.015625 1.613281 0.015625 0.84375 C 0.015625 0.550781 0.109375 0.320312 0.296875 0.15625 C 0.492188 0 0.773438 -0.09375 1.140625 -0.125 C 0.992188 -0.1875 0.851562 -0.273438 0.71875 -0.390625 C 0.59375 -0.515625 0.53125 -0.671875 0.53125 -0.859375 C 0.53125 -1.046875 0.597656 -1.207031 0.734375 -1.34375 C 0.878906 -1.488281 1.0625 -1.617188 1.28125 -1.734375 C 1.03125 -1.828125 0.820312 -1.984375 0.65625 -2.203125 C 0.5 -2.421875 0.421875 -2.695312 0.421875 -3.03125 C 0.421875 -3.519531 0.5625 -3.898438 0.84375 -4.171875 C 1.132812 -4.441406 1.578125 -4.578125 2.171875 -4.578125 C 2.359375 -4.578125 2.535156 -4.550781 2.703125 -4.5 C 2.878906 -4.445312 3.03125 -4.382812 3.15625 -4.3125 C 3.300781 -4.476562 3.4375 -4.597656 3.5625 -4.671875 C 3.695312 -4.742188 3.847656 -4.78125 4.015625 -4.78125 C 4.222656 -4.78125 4.375 -4.734375 4.46875 -4.640625 C 4.570312 -4.546875 4.625 -4.4375 4.625 -4.3125 C 4.625 -4.1875 4.582031 -4.070312 4.5 -3.96875 C 4.414062 -3.875 4.257812 -3.828125 4.03125 -3.828125 C 4.03125 -3.941406 3.992188 -4.03125 3.921875 -4.09375 C 3.859375 -4.15625 3.789062 -4.1875 3.71875 -4.1875 C 3.601562 -4.1875 3.507812 -4.15625 3.4375 -4.09375 C 3.550781 -3.96875 3.644531 -3.8125 3.71875 -3.625 C 3.800781 -3.4375 3.84375 -3.238281 3.84375 -3.03125 C 3.84375 -2.613281 3.707031 -2.265625 3.4375 -1.984375 C 3.164062 -1.710938 2.742188 -1.578125 2.171875 -1.578125 C 2.109375 -1.578125 2.019531 -1.578125 1.90625 -1.578125 C 1.800781 -1.585938 1.726562 -1.59375 1.6875 -1.59375 C 1.601562 -1.5625 1.53125 -1.507812 1.46875 -1.4375 C 1.40625 -1.363281 1.375 -1.273438 1.375 -1.171875 C 1.375 -1.085938 1.410156 -1.019531 1.484375 -0.96875 C 1.554688 -0.925781 1.65625 -0.90625 1.78125 -0.90625 L 2.78125 -0.90625 C 3.332031 -0.90625 3.734375 -0.789062 3.984375 -0.5625 C 4.242188 -0.34375 4.375 -0.0351562 4.375 0.359375 C 4.375 0.867188 4.175781 1.269531 3.78125 1.5625 C 3.394531 1.851562 2.789062 2 1.96875 2 Z M 2.140625 -2.0625 C 2.359375 -2.0625 2.503906 -2.148438 2.578125 -2.328125 C 2.660156 -2.503906 2.703125 -2.742188 2.703125 -3.046875 C 2.703125 -3.347656 2.660156 -3.59375 2.578125 -3.78125 C 2.503906 -3.976562 2.351562 -4.078125 2.125 -4.078125 C 1.914062 -4.078125 1.769531 -3.976562 1.6875 -3.78125 C 1.601562 -3.582031 1.5625 -3.332031 1.5625 -3.03125 C 1.5625 -2.738281 1.601562 -2.503906 1.6875 -2.328125 C 1.769531 -2.148438 1.921875 -2.0625 2.140625 -2.0625 Z M 1.984375 1.5 C 2.472656 1.5 2.828125 1.425781 3.046875 1.28125 C 3.265625 1.144531 3.375 0.941406 3.375 0.671875 C 3.375 0.492188 3.316406 0.367188 3.203125 0.296875 C 3.097656 0.222656 2.929688 0.1875 2.703125 0.1875 L 1.734375 0.1875 C 1.628906 0.1875 1.519531 0.203125 1.40625 0.234375 C 1.289062 0.265625 1.191406 0.320312 1.109375 0.40625 C 1.035156 0.5 1 0.640625 1 0.828125 C 1 1.273438 1.328125 1.5 1.984375 1.5 Z "/>
</g>
</g>
</defs>
<g fill="rgb(100%, 100%, 100%)" fill-opacity="1">
<use xlink:href="#glyph-0-0" x="30" y="28.908203"/>
<use xlink:href="#glyph-0-1" x="36" y="28.908203"/>
<use xlink:href="#glyph-0-2" x="40" y="28.908203"/>
<use xlink:href="#glyph-0-3" x="45" y="28.908203"/>
<use xlink:href="#glyph-0-4" x="51" y="28.908203"/>
<use xlink:href="#glyph-0-5" x="56" y="28.908203"/>
<use xlink:href="#glyph-0-6" x="58" y="28.908203"/>
<use xlink:href="#glyph-0-7" x="64" y="28.908203"/>
<use xlink:href="#glyph-0-8" x="69" y="28.908203"/>
<use xlink:href="#glyph-0-9" x="73" y="28.908203"/>
<use xlink:href="#glyph-0-3" x="76" y="28.908203"/>
<use xlink:href="#glyph-0-10" x="82" y="28.908203"/>
</g>
</svg>
